<?xml version="1.0" encoding="utf-8"?>
<!-- Generator: Adobe Illustrator 26.2.1, SVG Export Plug-In . SVG Version: 6.00 Build 0)  -->
<svg version="1.1" id="Capa_1" xmlns="http://www.w3.org/2000/svg" xmlns:xlink="http://www.w3.org/1999/xlink" x="0px" y="0px"
	 viewBox="0 0 283.5 283.5" style="enable-background:new 0 0 283.5 283.5;" xml:space="preserve">
<style type="text/css">
	.st0{fill:#FFFFFF;}
</style>
<path class="st0" d="M141.9,76.9c-30.3,0-60.7,0-91,0c-5.8,0-10.6-2-13.4-7.3c-4.3-8,0.6-17.8,9.5-19.3c1.6-0.3,3.3-0.4,4.9-0.4
	c60,0,119.9,0,179.9,0c2.4,0,4.8,0.2,7,0.9c5.8,1.7,9.7,7.8,9.1,13.6c-0.7,6.8-5.7,11.7-12.6,12.4c-1.1,0.1-2.3,0.1-3.4,0.1
	C201.9,76.9,171.9,76.9,141.9,76.9z"/>
<path class="st0" d="M142,240.4c-30.4,0-60.9,0-91.3,0c-7.9,0-13.1-4.2-14.5-11.3c-1.3-6.9,3.6-14,10.5-15.2
	c1.7-0.3,3.5-0.4,5.3-0.4c60.1,0,120.1,0,180.2,0c2.7,0,5.6,0.4,8.2,1.4c5.4,2.2,8.6,8.4,7.7,13.9c-1.1,6.5-6,11-12.4,11.5
	c-1.2,0.1-2.5,0.1-3.7,0.1C201.8,240.4,171.9,240.4,142,240.4z"/>
<path class="st0" d="M103.7,158.6c-17.7,0-35.4,0-53.1,0c-7.9,0-13-3.9-14.4-10.9c-1.5-7.5,4-15.1,11.6-15.8
	c0.9-0.1,1.9-0.1,2.8-0.1c35.5,0,71,0,106.6,0c7,0,12,3.4,13.9,9.3c2.7,8.3-3,17.1-11.7,17.3c-12.8,0.3-25.7,0.2-38.5,0.2
	C115.1,158.6,109.4,158.6,103.7,158.6z"/>
<path class="st0" d="M223.7,158.5c-3.9,0-7.9,0.2-11.8,0c-7.1-0.4-12.6-6.3-12.6-13.3c0-7.1,5.8-13.1,12.9-13.3
	c7.7-0.2,15.3-0.2,23,0c7.1,0.2,12.9,6.3,12.9,13.3c0,7-5.5,12.9-12.6,13.2C231.6,158.6,227.6,158.5,223.7,158.5z"/>
</svg>
